<?xml version="1.0" standalone="no"?>
<!DOCTYPE svg PUBLIC "-//W3C//DTD SVG 20010904//EN"
 "http://www.w3.org/TR/2001/REC-SVG-20010904/DTD/svg10.dtd">
<svg version="1.0" xmlns="http://www.w3.org/2000/svg"
 width="689.000000pt" height="689.000000pt" viewBox="0 0 689.000000 689.000000"
 preserveAspectRatio="xMidYMid meet">
<metadata>
Created by potrace 1.14, written by Peter Selinger 2001-2017
</metadata>
<g transform="translate(0.000000,689.000000) scale(0.100000,-0.100000)"
fill="#000000" stroke="none">
<path d="M3146 6085 c84 -224 129 -378 173 -580 27 -128 34 -169 47 -275 2
-19 6 -51 9 -70 25 -184 26 -666 1 -820 -5 -30 -15 -99 -22 -160 -6 -51 -56
-285 -79 -375 -85 -322 -272 -750 -436 -997 -21 -33 -39 -61 -39 -63 0 -7
-131 -186 -186 -256 -43 -54 -50 -68 -36 -71 14 -3 1541 -2 1578 1 9 1 123
146 147 187 22 38 42 311 41 574 0 162 -10 370 -19 419 -1 9 -6 43 -9 76 -6
50 -43 286 -51 320 -1 6 -5 28 -10 50 -4 22 -15 72 -25 110 -11 39 -21 81 -24
95 -7 38 -52 184 -90 295 -195 574 -538 1137 -953 1565 l-43 45 26 -70z"/>
<path d="M1601 5350 c69 -178 132 -411 163 -600 14 -87 18 -120 31 -260 5 -53
5 -347 1 -405 -7 -87 -18 -190 -21 -195 -2 -3 -6 -34 -10 -70 -4 -36 -9 -68
-11 -72 -3 -4 -7 -22 -9 -40 -11 -82 -86 -341 -138 -478 -40 -107 -132 -299
-195 -410 -42 -73 -161 -250 -219 -324 -29 -37 -53 -71 -53 -75 0 -8 1224 -6
1238 3 21 13 154 198 161 224 12 44 15 124 16 367 0 234 -8 355 -31 495 -3 19
-8 46 -10 60 -39 235 -93 433 -180 662 -151 398 -400 797 -683 1098 l-71 75
21 -55z"/>
<path d="M4805 5369 c64 -160 138 -419 161 -564 2 -11 7 -46 13 -78 6 -32 13
-88 17 -125 3 -37 8 -83 10 -102 5 -51 5 -398 0 -445 -3 -22 -8 -69 -11 -104
-7 -63 -11 -90 -20 -141 -3 -14 -7 -41 -10 -60 -3 -19 -19 -91 -36 -160 -90
-376 -261 -739 -497 -1055 -41 -55 -76 -104 -78 -110 -6 -14 1185 -13 1194 1
4 6 28 37 53 70 25 32 71 98 102 145 64 99 67 113 67 374 -1 311 -36 593 -109
860 -11 39 -26 95 -35 126 -57 208 -204 539 -339 764 -57 96 -173 268 -208
310 -9 11 -44 54 -77 95 -33 41 -94 111 -136 155 -68 72 -74 76 -61 44z"/>
<path d="M370 4802 c0 -5 9 -31 19 -58 11 -27 23 -58 27 -69 50 -135 108 -413
119 -570 7 -93 7 -318 0 -390 -41 -448 -209 -879 -477 -1222 -26 -35 -48 -66
-48 -70 0 -6 842 -9 906 -4 12 1 95 106 180 226 l49 70 0 185 c0 161 -6 270
-19 360 -9 63 -19 127 -23 145 -2 11 -8 41 -13 66 -85 429 -334 919 -632 1244
-20 22 -48 53 -62 68 -14 15 -26 24 -26 19z"/>
<path d="M6110 4803 c0 -5 14 -44 30 -87 29 -76 83 -267 95 -335 3 -19 7 -37
9 -40 2 -3 7 -31 10 -61 3 -30 8 -68 11 -85 15 -86 20 -348 10 -470 -8 -94
-27 -222 -46 -305 -6 -25 -12 -52 -14 -60 -54 -264 -228 -626 -414 -865 -26
-33 -50 -64 -53 -70 -6 -10 1086 -14 1096 -4 3 3 8 23 11 45 4 21 8 50 11 64
26 157 25 595 -2 740 -2 14 -6 39 -8 55 -7 48 -16 96 -32 165 -9 36 -17 72
-19 80 -53 250 -214 607 -389 865 -91 134 -306 392 -306 368z"/>
<path d="M64 2293 c1 -1 20 -5 41 -9 145 -23 290 -96 412 -209 22 -20 34 -20
275 -20 l253 0 27 105 c14 58 27 112 27 120 1 14 -60 15 -518 15 -286 0 -519
-1 -517 -2z"/>
<path d="M1226 2288 c3 -5 15 -8 27 -8 85 0 307 -94 417 -177 l65 -49 357 1
c196 0 359 2 361 5 3 3 16 57 30 120 l24 115 -643 0 c-353 0 -640 -3 -638 -7z"/>
<path d="M2628 2293 c7 -3 16 -2 19 1 4 3 -2 6 -13 5 -11 0 -14 -3 -6 -6z"/>
<path d="M2668 2289 c4 -3 37 -11 73 -17 139 -25 308 -94 435 -178 l58 -39
489 0 c269 0 493 3 499 6 8 5 29 85 44 169 2 14 6 34 9 45 4 20 2 20 -805 20
-445 0 -806 -2 -802 -6z"/>
<path d="M4426 2291 c2 -3 10 -6 17 -7 169 -26 285 -74 427 -176 l75 -53 360
0 360 0 22 100 c12 55 24 109 27 120 5 20 2 20 -644 20 -357 0 -647 -2 -644
-4z"/>
<path d="M5830 2288 c0 -5 13 -8 29 -8 81 0 285 -100 372 -182 l44 -42 257 -1
258 0 10 30 c5 16 16 62 25 100 8 39 17 79 20 90 4 20 1 20 -505 20 -281 0
-510 -3 -510 -7z"/>
<path d="M638 1962 l-27 -3 28 -42 c24 -35 57 -110 84 -189 6 -16 20 -18 104
-18 97 0 98 0 110 28 24 54 83 222 78 223 -15 3 -354 4 -377 1z"/>
<path d="M1830 1957 c0 -4 18 -31 39 -60 22 -29 56 -82 76 -119 l37 -68 183 0
183 0 17 48 c18 51 63 201 61 203 -9 6 -596 2 -596 -4z"/>
<path d="M3350 1960 c0 -3 23 -30 51 -60 27 -30 71 -85 96 -122 l47 -68 292 0
292 0 27 88 c15 48 31 102 37 120 5 18 7 36 4 39 -7 8 -846 10 -846 3z"/>
<path d="M5048 1959 c-5 -4 8 -30 31 -60 23 -30 57 -84 77 -122 l35 -67 186 2
185 3 34 102 c18 57 34 113 36 125 l3 21 -288 1 c-159 1 -293 -2 -299 -5z"/>
<path d="M6360 1959 c0 -3 14 -32 32 -65 18 -32 42 -86 54 -119 l22 -60 101
-3 101 -3 20 46 c37 86 73 196 66 202 -8 8 -396 10 -396 2z"/>
<path d="M745 1502 c-1 -64 -6 -132 -12 -149 -23 -63 3 -32 57 69 30 56 65
124 77 150 l22 48 -72 0 -72 0 0 -118z"/>
<path d="M2020 1596 c9 -25 26 -115 34 -180 3 -21 7 -40 9 -42 5 -5 137 -7
142 -2 5 6 105 236 105 242 0 3 -67 6 -150 6 l-150 0 10 -24z"/>
<path d="M3600 1615 c0 -2 10 -28 23 -57 13 -29 31 -80 41 -113 10 -33 22 -64
26 -68 7 -8 307 -13 314 -6 2 2 20 47 39 99 20 52 40 107 46 123 l11 27 -250
0 c-138 0 -250 -2 -250 -5z"/>
<path d="M5230 1611 c0 -5 7 -36 14 -68 8 -32 18 -83 21 -113 4 -30 8 -56 9
-57 2 -3 113 -6 132 -4 5 1 19 20 29 44 10 23 31 69 45 103 52 115 63 104
-104 104 -82 0 -146 -4 -146 -9z"/>
<path d="M6484 1502 c0 -64 -5 -132 -12 -149 -16 -46 -1 -41 27 10 59 105 102
188 116 221 l15 36 -72 0 -73 0 -1 -118z"/>
<path d="M2059 1273 c-6 -86 -13 -133 -24 -171 l-14 -47 20 24 c20 24 109 183
109 195 0 9 -90 8 -91 -1z"/>
<path d="M3715 1213 c4 -37 6 -95 6 -129 l-1 -60 53 1 c29 1 59 5 66 9 10 7
121 226 121 240 0 2 -57 5 -126 5 l-126 2 7 -68z"/>
<path d="M5262 1198 c-7 -46 -15 -96 -18 -113 -4 -20 12 -1 49 61 30 50 58
101 62 112 6 20 3 22 -38 22 l-43 0 -12 -82z"/>
<path d="M3719 935 c-2 -1 -45 -195 -43 -195 3 0 114 188 114 194 0 1 -68 3
-71 1z"/>
</g>
</svg>
