<?xml version="1.0" encoding="UTF-8"?>
<svg xmlns="http://www.w3.org/2000/svg" xmlns:xlink="http://www.w3.org/1999/xlink" width="313px" height="246px" viewBox="0 0 312 246" version="1.1">
<g id="surface1">
<path style=" stroke:none;fill-rule:nonzero;fill:rgb(9.019608%,56.862745%,100%);fill-opacity:1;" d="M 0 169.589844 L 41.820312 169.589844 C 45.449219 165.226562 48.792969 160.625 51.820312 155.824219 C 51.988281 153.175781 52.101562 150.511719 52.101562 147.820312 C 52.140625 115.238281 39.300781 83.964844 16.390625 60.832031 C 21.820312 73.789062 24.605469 87.699219 24.59375 101.75 C 24.625 126.554688 15.917969 150.578125 0 169.589844 Z M 0 169.589844 "/>
<path style=" stroke:none;fill-rule:nonzero;fill:rgb(31.764706%,67.843137%,100%);fill-opacity:1;" d="M 24.324219 185.976562 L 47.347656 185.976562 C 48.339844 182.351562 49.214844 178.710938 49.910156 175.085938 L 0 175.085938 C 9.226562 175.351562 17.972656 179.269531 24.324219 185.976562 Z M 24.324219 185.976562 "/>
<path style=" stroke:none;fill-rule:nonzero;fill:rgb(31.764706%,67.843137%,100%);fill-opacity:1;" d="M 41.988281 201.511719 C 43.515625 197.773438 44.929688 193.976562 46.132812 190.097656 L 27.664062 190.097656 C 30.082031 193.550781 31.851562 197.421875 32.882812 201.511719 Z M 41.988281 201.511719 "/>
<path style=" stroke:none;fill-rule:nonzero;fill:rgb(31.764706%,67.843137%,100%);fill-opacity:1;" d="M 40.292969 205.632812 L 33.660156 205.632812 C 33.855469 207.113281 33.960938 208.601562 33.96875 210.09375 C 33.984375 213.519531 33.5 216.925781 32.527344 220.207031 C 35.476562 215.550781 38.074219 210.679688 40.292969 205.632812 Z M 40.292969 205.632812 "/>
<path style=" stroke:none;fill-rule:nonzero;fill:rgb(9.019608%,56.862745%,100%);fill-opacity:1;" d="M 259.914062 169.589844 L 310.078125 169.589844 C 317.136719 129.996094 304.539062 89.433594 276.304688 60.832031 C 291.535156 97.308594 285.214844 139.242188 259.914062 169.589844 Z M 259.914062 169.589844 "/>
<path style=" stroke:none;fill-rule:nonzero;fill:rgb(31.764706%,67.843137%,100%);fill-opacity:1;" d="M 284.265625 185.976562 L 307.601562 185.976562 C 308.578125 182.40625 309.425781 178.765625 310.078125 175.085938 L 259.914062 175.085938 C 269.148438 175.351562 277.902344 179.265625 284.265625 185.976562 Z M 284.265625 185.976562 "/>
<path style=" stroke:none;fill-rule:nonzero;fill:rgb(31.764706%,67.843137%,100%);fill-opacity:1;" d="M 302.144531 201.511719 C 303.710938 197.789062 305.167969 193.992188 306.386719 190.097656 L 287.574219 190.097656 C 289.988281 193.554688 291.757812 197.421875 292.792969 201.511719 Z M 302.144531 201.511719 "/>
<path style=" stroke:none;fill-rule:nonzero;fill:rgb(31.764706%,67.843137%,100%);fill-opacity:1;" d="M 300.390625 205.632812 L 293.570312 205.632812 C 293.765625 207.113281 293.863281 208.601562 293.871094 210.09375 C 293.894531 213.515625 293.417969 216.921875 292.453125 220.207031 C 295.429688 215.535156 298.078125 210.667969 300.390625 205.632812 Z M 300.390625 205.632812 "/>
<path style=" stroke:none;fill-rule:nonzero;fill:rgb(9.019608%,50.588235%,100%);fill-opacity:1;" d="M 51.183594 169.589844 L 107.484375 169.589844 C 110.113281 166.417969 112.621094 163.144531 115.007812 159.773438 C 115.632812 154.128906 115.945312 148.457031 115.941406 142.777344 C 116.003906 102.054688 99.980469 62.957031 71.363281 34.019531 C 78.144531 50.226562 81.625 67.621094 81.601562 85.191406 C 81.648438 116.023438 70.878906 145.894531 51.183594 169.589844 Z M 51.183594 169.589844 "/>
<path style=" stroke:none;fill-rule:nonzero;fill:rgb(31.764706%,63.137255%,100%);fill-opacity:1;" d="M 111.074219 185.976562 C 111.996094 182.363281 112.816406 178.738281 113.480469 175.085938 L 51.253906 175.085938 C 51.140625 175.226562 51.039062 174.957031 50.941406 175.085938 C 61.058594 175.398438 70.746094 179.25 78.320312 185.976562 Z M 111.074219 185.976562 "/>
<path style=" stroke:none;fill-rule:nonzero;fill:rgb(31.764706%,63.137255%,100%);fill-opacity:1;" d="M 106.351562 201.511719 C 107.765625 197.757812 108.941406 193.949219 110.015625 190.097656 L 82.324219 190.097656 C 85.289062 193.515625 87.722656 197.363281 89.535156 201.511719 Z M 106.351562 201.511719 "/>
<path style=" stroke:none;fill-rule:nonzero;fill:rgb(31.764706%,63.137255%,100%);fill-opacity:1;" d="M 99.746094 217.035156 C 101.542969 213.324219 103.253906 209.527344 104.78125 205.632812 L 91.121094 205.632812 C 92.328125 209.324219 93.035156 213.15625 93.226562 217.035156 Z M 99.746094 217.035156 "/>
<path style=" stroke:none;fill-rule:nonzero;fill:rgb(31.764706%,63.137255%,100%);fill-opacity:1;" d="M 93.257812 221.15625 C 93.097656 224.789062 92.492188 228.390625 91.460938 231.878906 C 93.667969 228.4375 95.703125 224.796875 97.65625 221.15625 Z M 93.257812 221.15625 "/>
<path style=" stroke:none;fill-rule:nonzero;fill:rgb(9.019608%,50.588235%,100%);fill-opacity:1;" d="M 196.582031 169.589844 L 250.804688 169.589844 C 254.535156 165.097656 257.898438 160.316406 260.859375 155.285156 C 261.1875 151.164062 261.382812 147 261.382812 142.777344 C 261.449219 102.054688 245.425781 62.953125 216.804688 34.019531 C 235.789062 79.457031 227.996094 131.691406 196.582031 169.589844 Z M 196.582031 169.589844 "/>
<path style=" stroke:none;fill-rule:nonzero;fill:rgb(31.764706%,63.137255%,100%);fill-opacity:1;" d="M 256.460938 185.976562 C 257.382812 182.363281 258.230469 178.722656 258.894531 175.085938 L 196.582031 175.085938 C 196.46875 175.226562 196.371094 174.957031 196.257812 175.085938 C 206.378906 175.398438 216.070312 179.25 223.652344 185.976562 Z M 256.460938 185.976562 "/>
<path style=" stroke:none;fill-rule:nonzero;fill:rgb(31.764706%,63.137255%,100%);fill-opacity:1;" d="M 251.738281 201.511719 C 253.152344 197.757812 254.3125 193.949219 255.402344 190.097656 L 227.765625 190.097656 C 230.742188 193.511719 233.179688 197.359375 234.992188 201.511719 Z M 251.738281 201.511719 "/>
<path style=" stroke:none;fill-rule:nonzero;fill:rgb(31.764706%,63.137255%,100%);fill-opacity:1;" d="M 245.160156 217.035156 C 246.957031 213.324219 248.65625 209.527344 250.183594 205.632812 L 236.5625 205.632812 C 237.769531 209.324219 238.480469 213.15625 238.683594 217.035156 Z M 245.160156 217.035156 "/>
<path style=" stroke:none;fill-rule:nonzero;fill:rgb(31.764706%,63.137255%,100%);fill-opacity:1;" d="M 238.699219 221.15625 C 238.546875 224.789062 237.941406 228.390625 236.902344 231.878906 C 239.109375 228.449219 241.144531 224.796875 243.082031 221.15625 Z M 238.699219 221.15625 "/>
<path style=" stroke:none;fill-rule:nonzero;fill:rgb(15.294118%,39.607843%,100%);fill-opacity:1;" d="M 115.757812 169.589844 L 188.40625 169.589844 C 190.8125 166.671875 193.097656 163.660156 195.265625 160.554688 C 196.308594 152.410156 196.839844 144.207031 196.851562 135.996094 C 196.914062 85.074219 176.863281 36.199219 141.074219 0.03125 C 149.550781 20.273438 153.910156 42.007812 153.886719 63.960938 C 153.933594 102.558594 140.4375 139.945312 115.757812 169.589844 Z M 115.757812 169.589844 "/>
<path style=" stroke:none;fill-rule:nonzero;fill:rgb(31.372549%,54.117647%,100%);fill-opacity:1;" d="M 191.433594 185.976562 C 192.296875 182.363281 193.089844 178.738281 193.753906 175.085938 L 115.757812 175.085938 C 115.660156 175.210938 115.558594 174.957031 115.460938 175.085938 C 126.636719 175.429688 137.433594 179.234375 146.363281 185.976562 Z M 191.433594 185.976562 "/>
<path style=" stroke:none;fill-rule:nonzero;fill:rgb(31.372549%,54.117647%,100%);fill-opacity:1;" d="M 160.433594 201.511719 L 186.992188 201.511719 C 188.222656 197.746094 189.371094 193.949219 190.375 190.097656 L 151.226562 190.097656 C 154.785156 193.476562 157.882812 197.316406 160.433594 201.511719 Z M 160.433594 201.511719 "/>
<path style=" stroke:none;fill-rule:nonzero;fill:rgb(31.372549%,54.117647%,100%);fill-opacity:1;" d="M 181.265625 217.035156 C 182.820312 213.296875 184.292969 209.484375 185.636719 205.632812 L 162.738281 205.632812 C 164.574219 209.265625 165.996094 213.089844 166.980469 217.035156 Z M 181.265625 217.035156 "/>
<path style=" stroke:none;fill-rule:nonzero;fill:rgb(31.372549%,54.117647%,100%);fill-opacity:1;" d="M 168.4375 232.570312 L 173.953125 232.570312 C 175.890625 228.847656 177.746094 225.035156 179.46875 221.15625 L 167.816406 221.15625 C 168.308594 224.132812 168.5625 227.144531 168.566406 230.164062 C 168.523438 230.972656 168.464844 231.765625 168.4375 232.570312 Z M 168.4375 232.570312 "/>
<path style=" stroke:none;fill-rule:nonzero;fill:rgb(31.372549%,54.117647%,100%);fill-opacity:1;" d="M 168.097656 236.691406 C 167.734375 239.835938 167.09375 242.9375 166.191406 245.96875 C 168.128906 242.96875 169.9375 239.851562 171.691406 236.691406 Z M 168.097656 236.691406 "/>
</g>
</svg>
